<svg width="146" height="23" viewBox="0 0 146 23" fill="none" xmlns="http://www.w3.org/2000/svg">
<path fill-rule="evenodd" clip-rule="evenodd" d="M12.4142 16.6949C14.4834 16.129 16.1136 14.7397 17.3068 12.5283L17.7007 12.6378C17.4906 13.588 17.1303 14.4649 16.623 15.2696C16.1136 16.0742 15.5002 16.7727 14.7817 17.366C14.0622 17.9605 13.265 18.4225 12.3879 18.7509C11.5109 19.0804 10.5992 19.2446 9.65281 19.2446C8.51211 19.2446 7.4523 19.0432 6.47022 18.6414C5.48813 18.2396 4.63314 17.6813 3.90524 16.9686C3.17839 16.2559 2.60384 15.4163 2.18265 14.4463C1.76145 13.4786 1.55138 12.4276 1.55138 11.2945C1.55138 10.2162 1.73099 9.16525 2.09022 8.14165C2.44944 7.11806 2.96201 6.19519 3.63004 5.37303C3.97981 4.93404 4.36634 4.53226 4.78649 4.16662C5.20768 3.80097 5.75072 3.38168 6.4177 2.90547C6.1362 2.86934 5.91248 2.84197 5.74652 2.82336C5.57951 2.80584 5.4083 2.79599 5.23394 2.79599C3.02399 2.79599 1.41168 3.97504 0.394935 6.33203L0 7.85702C0.403338 6.04849 1.1701 2.93283 2.30134 1.94647C3.43258 0.959001 4.8222 0.466363 6.47022 0.466363C6.87355 0.466363 7.34622 0.493732 7.8903 0.54847C8.43334 0.603207 8.97742 0.676555 9.52046 0.76742L11.3092 1.06957L12.6505 1.28852C13.0192 1.34326 13.3826 1.38924 13.7429 1.42536C14.1011 1.46259 14.4046 1.4801 14.6504 1.4801C15.8594 1.4801 16.7448 0.987464 17.3068 0L17.7007 0.136844C17.6124 1.30713 17.1881 2.23001 16.4255 2.90547C15.6619 3.58202 14.6504 3.9203 13.3879 3.9203C13.2997 3.9203 13.1631 3.91154 12.9793 3.89293C12.874 3.8829 12.7674 3.87251 12.6592 3.86197L12.4142 3.83819V16.6949ZM7.46911 2.90547C7.01325 3.14412 6.63617 3.39044 6.33892 3.64552C6.04062 3.90169 5.76017 4.2126 5.49653 4.57824C4.98816 5.29093 4.59322 6.11308 4.31278 7.04581C4.03233 7.97744 3.89263 8.88171 3.89263 9.7597C3.89263 11.8977 4.69826 13.7347 6.31161 15.2696C6.57525 15.0681 6.78112 14.8809 6.93027 14.708C7.07942 14.5339 7.19391 14.3095 7.27269 14.0358C7.35042 13.761 7.40399 13.4096 7.43024 12.9804C7.4565 12.5513 7.46911 11.9798 7.46911 11.2672V2.90547ZM11.8355 3.75499C11.6422 3.71887 11.4804 3.68712 11.3491 3.65975C11.2178 3.63238 11.0897 3.60501 10.9679 3.57764C10.845 3.55027 10.7179 3.5229 10.5855 3.49554C10.4542 3.46817 10.2925 3.43642 10.1003 3.3992V10.3071C10.1003 10.9289 10.0729 11.4358 10.0204 11.8288C9.96791 12.2218 9.84502 12.5874 9.65281 12.9257C9.45954 13.264 9.16124 13.6242 8.7579 14.0084C8.35456 14.3927 7.81152 14.8766 7.12774 15.4612L6.86515 15.6801C7.47856 16.1016 8.08252 16.407 8.67912 16.5986C9.27573 16.7913 9.9154 16.8865 10.5992 16.8865C10.7924 16.8865 10.9721 16.8778 11.1391 16.8591C11.305 16.8416 11.5372 16.8143 11.8355 16.777V3.75499ZM18.5685 17.4899L19.621 16.5572V3.75517C19.621 3.40923 19.6031 3.10708 19.5685 2.85091C19.5328 2.59583 19.4708 2.36703 19.3836 2.1656C19.2964 1.96526 19.1819 1.77258 19.0422 1.58976C18.9015 1.40803 18.7177 1.21535 18.4897 1.01392L18.6998 0.658125C19.0328 0.804822 19.3353 0.973413 19.6073 1.16499C19.8794 1.35658 20.2165 1.6445 20.6199 2.02875C20.9707 1.57224 21.3866 1.21535 21.8698 0.959182C22.3519 0.704105 22.9517 0.511429 23.6712 0.383343L23.8287 0.712863C23.5136 0.914297 23.2542 1.10588 23.0536 1.2887C22.8519 1.47152 22.6933 1.67186 22.5798 1.89191C22.4654 2.11086 22.3866 2.36703 22.3425 2.65933C22.2983 2.95163 22.2773 3.29976 22.2773 3.70044V8.6082L25.9336 5.51006C26.3191 5.82097 26.6342 6.09903 26.88 6.34645C27.1248 6.59276 27.3138 6.86317 27.4451 7.15547C27.5775 7.44776 27.6646 7.78495 27.7088 8.1692C27.7518 8.55346 27.7739 9.02858 27.7739 9.59457V15.0497C27.7739 15.7449 27.735 16.3612 27.6562 16.8998C27.5775 17.4395 27.4451 17.9289 27.2613 18.3668C27.0775 18.8058 26.8443 19.2032 26.5639 19.5601C26.2834 19.9159 25.9336 20.2498 25.5125 20.5607C24.898 20.9986 24.2184 21.4102 23.4737 21.7945C22.7279 22.1776 21.8131 22.5794 20.726 22.9998L20.5674 22.506L20.8835 22.3418C21.7942 21.9039 22.5273 21.5098 23.0788 21.1628C23.6313 20.8158 24.0567 20.4271 24.355 19.998C24.6533 19.5688 24.8507 19.062 24.9474 18.4763C25.0429 17.8928 25.0913 17.1615 25.0913 16.2835V9.67667C25.0913 9.38547 25.0818 9.13806 25.065 8.93662C25.0482 8.73628 25.0083 8.55784 24.9474 8.40239C24.8854 8.24693 24.7972 8.10571 24.6837 7.97762C24.5692 7.84954 24.4243 7.71269 24.2499 7.566L22.2773 9.23878V16.5572L23.0924 17.572L20.7774 19.3816L18.5685 17.4899ZM33.6919 19.3815C32.9724 18.9064 32.2718 18.5221 31.587 18.2298C30.9043 17.9375 30.2635 17.7372 29.6669 17.6266V17.353C30.0178 17.1515 30.2499 16.8866 30.3644 16.5582C30.4778 16.2286 30.5356 15.6714 30.5356 14.8854V10.0335C30.5356 9.35799 30.4915 8.93214 30.4043 8.75916C30.3161 8.5851 30.0965 8.49861 29.7468 8.49861H29.6669L29.5356 8.19646L29.8518 8.05962C30.3245 7.84067 30.7625 7.63486 31.1669 7.44218C31.5702 7.2506 31.9651 7.05464 32.3506 6.85321C32.7361 6.65287 33.1174 6.44158 33.4944 6.22263C33.8715 6.00368 34.2612 5.76612 34.6646 5.50995L37.8745 9.78714L33.1132 13.9264V16.4213L33.1177 16.4237C33.3615 16.5508 33.5701 16.6594 33.7444 16.7497C33.9188 16.8417 34.0858 16.9282 34.2444 17.0103C34.402 17.0924 34.5679 17.1844 34.7433 17.284C34.9187 17.3847 35.1299 17.4996 35.3756 17.6266L37.2684 16.2834L37.532 16.6676L33.6919 19.3815ZM35.7695 10.7188L33.1132 7.15536V13.0221L35.7695 10.7188ZM58.0731 7.92267H55.4692V13.8442C55.4692 14.3926 55.4556 14.8535 55.4293 15.2279C55.4031 15.6034 55.3547 15.9275 55.2854 16.2012C55.215 16.4759 55.1184 16.7135 54.9955 16.9138C54.8726 17.1153 54.7235 17.3255 54.5491 17.5444C54.3548 17.7645 54.1489 17.9648 53.9305 18.1476C53.7109 18.3305 53.4525 18.5177 53.1542 18.7092C52.8559 18.9019 52.5051 19.0979 52.1028 19.2993C51.6995 19.4996 51.2079 19.7372 50.6292 20.012L46.7365 21.7942L46.6831 21.7663C46.6187 21.7326 46.5052 21.6731 46.3427 21.5884C46.1147 21.4691 45.8563 21.3421 45.5664 21.2042C45.2765 21.0673 44.9877 20.9436 44.6978 20.8341C44.4089 20.7247 44.1936 20.6699 44.0539 20.6699C43.5634 20.6699 43.1863 21.0443 42.9227 21.7942L42.4238 21.6289C42.5635 20.7334 42.8576 20.012 43.304 19.4635C43.7514 18.9151 44.2735 18.6414 44.8701 18.6414C45.0623 18.6414 45.2681 18.6644 45.4877 18.7092C45.7061 18.7552 45.9561 18.8329 46.2376 18.9424C46.517 19.0519 46.8374 19.1986 47.1966 19.3814C47.5558 19.5642 47.9823 19.793 48.4728 20.0667C48.5778 19.9934 48.6703 19.9157 48.749 19.8335C48.8278 19.7514 48.894 19.6004 48.9465 19.3814C48.999 19.1625 49.0379 18.8329 49.0641 18.3939C49.0914 17.956 49.1041 17.3441 49.1041 16.5581V7.92267C48.7354 7.92267 48.4203 7.92705 48.1577 7.9358C47.894 7.94566 47.6619 7.96427 47.4602 7.99164C47.2586 8.019 47.0695 8.05951 46.8951 8.11425C46.7197 8.16899 46.5349 8.23357 46.3427 8.30692C45.9393 8.47114 45.6022 8.65834 45.3301 8.86853C45.057 9.07872 44.7913 9.33927 44.5276 9.65018L44.159 9.34803C44.4573 8.63535 44.7251 8.10111 44.9614 7.74422C45.1988 7.38843 45.4919 7.07314 45.8427 6.79836C46.0528 6.65276 46.2544 6.52905 46.4477 6.42833C46.6399 6.32871 46.8594 6.2466 47.1052 6.18201C47.35 6.11852 47.6315 6.07254 47.9466 6.04517C48.2617 6.01671 48.6482 6.00357 49.1041 6.00357V3.86552C50.0158 3.75605 50.7563 3.61811 51.3266 3.4539C51.8959 3.28969 52.4537 3.06198 52.9967 2.76858C53.6101 2.44016 54.1143 2.08765 54.5092 1.71325C54.9041 1.33884 55.2497 0.895467 55.548 0.384219C56.2139 0.895467 56.758 1.24688 57.1792 1.43956C57.5994 1.63114 58.0122 1.72748 58.4144 1.72748C58.8178 1.72748 59.1686 1.62238 59.4669 1.41219C59.7652 1.202 60.0635 0.85934 60.3618 0.384219L60.7294 0.466325C60.6412 1.50743 60.3345 2.32083 59.8093 2.90652C59.2831 3.49112 58.6077 3.78342 57.7842 3.78342C57.4334 3.78342 57.0773 3.73306 56.7181 3.63234C56.3589 3.53272 55.9429 3.37179 55.4692 3.15284V6.00357H58.8094L58.0731 7.92267ZM53.0755 3.70131C52.9179 3.77356 52.7772 3.83378 52.6553 3.87866C52.5324 3.92464 52.4179 3.97062 52.3129 4.0166C52.2079 4.06258 52.0934 4.0987 51.9715 4.12607C51.8476 4.15344 51.6995 4.19395 51.5241 4.24978V13.6515C51.5241 14.5295 51.5062 15.2378 51.4716 15.7764C51.4359 16.3161 51.3529 16.7912 51.2216 17.2018C51.0892 17.6134 50.8928 18.0108 50.6292 18.3939C50.3666 18.7782 50.0074 19.2446 49.5515 19.793C50.0945 19.4635 50.5504 19.1526 50.9191 18.8603C51.2867 18.568 51.6291 18.2396 51.9442 17.8739C52.1722 17.5992 52.3612 17.3441 52.5104 17.1065C52.6585 16.869 52.7772 16.6084 52.8654 16.3249C52.9526 16.0413 53.0093 15.7217 53.0366 15.3659C53.0629 15.009 53.0755 14.5667 53.0755 14.0357V3.70131ZM67.7527 16.5305V17.0516V17.2158C67.2611 17.4347 66.8326 17.6318 66.4639 17.8048C66.0963 17.9788 65.7675 18.1474 65.4776 18.3127C65.1887 18.4769 64.9209 18.6455 64.6751 18.8196C64.4293 18.9937 64.1846 19.1809 63.9388 19.3812C63.15 18.7419 62.3696 18.2536 61.5986 17.9153C60.8266 17.577 60.0105 17.3712 59.1523 17.2979V16.9695C59.3099 16.86 59.437 16.7407 59.5336 16.6126C59.6292 16.4856 59.7048 16.3159 59.7573 16.1057C59.8098 15.8955 59.8445 15.6218 59.8624 15.2835C59.8792 14.9453 59.8886 14.5019 59.8886 13.9534V7.73087C60.6249 7.47469 61.2867 7.17364 61.8749 6.82551C62.461 6.47957 63.0355 6.04057 63.5974 5.51071C64.298 6.02196 64.9598 6.42811 65.5826 6.73027C66.2055 7.03132 66.9281 7.28311 67.7527 7.48345V16.5305ZM62.4662 15.9273L65.1751 17.1884V8.88254L62.4662 7.64876V15.9273ZM71.6454 5.51028C72.5393 5.96679 73.1621 6.68932 73.5129 7.67569L75.9067 5.42817L77.7995 7.89464L75.9855 9.59479L74.4331 7.59358L73.4079 8.55259V16.2563L74.6704 17.2712L75.9067 16.2563L76.2481 16.6953L73.0918 19.3819C72.5309 18.7973 71.992 18.3495 71.4742 18.0386C70.9564 17.7277 70.4175 17.5087 69.8566 17.3806V17.1059C70.2075 16.8508 70.449 16.576 70.5803 16.2837C70.7116 15.9914 70.7778 15.5261 70.7778 14.8857V9.37584C70.7778 9.10106 70.7684 8.87335 70.7505 8.69052C70.7337 8.5077 70.7022 8.34787 70.6591 8.20993C70.615 8.07309 70.5488 7.95485 70.4617 7.85414C70.3734 7.75342 70.26 7.64832 70.1203 7.53885L69.3567 8.19679L69.0678 7.81253L71.6454 5.51028ZM82.0342 1.94654V6.08579H84.2179V7.53852H82.0342V16.256C82.1749 16.348 82.2926 16.4301 82.3892 16.5034C82.4858 16.5757 82.5783 16.6446 82.6655 16.7081C82.7537 16.7727 82.8409 16.8461 82.9291 16.9282C83.0163 17.0103 83.1297 17.1066 83.2705 17.2161L84.0866 16.5034L84.4805 16.9687L81.6928 19.3815C80.8515 18.4499 79.8253 17.8007 78.6153 17.4351V17.0793C78.7896 16.9512 78.9346 16.8231 79.0491 16.695C79.1625 16.5669 79.2507 16.4115 79.3127 16.2286C79.3736 16.0469 79.4125 15.8181 79.4304 15.5433C79.4472 15.2696 79.4566 14.9128 79.4566 14.4749V7.53852H78.2991V7.07325L82.0342 1.94654ZM87.1624 5.51028L87.426 5.72923C87.6886 5.96679 87.8987 6.16822 88.0573 6.33243C88.2148 6.49664 88.3419 6.66195 88.4386 6.82616C88.5341 6.99038 88.5961 7.16006 88.6224 7.33303C88.6486 7.5071 88.6623 7.71291 88.6623 7.95047V8.2789L91.9236 5.51028L93.8437 7.45674L95.0537 6.25033L95.4213 6.68932C95.1409 6.96301 94.913 7.2148 94.7376 7.44251C94.5622 7.67131 94.4309 7.91325 94.3437 8.16942C94.2554 8.42559 94.1935 8.71351 94.1588 9.03318C94.1242 9.35285 94.1063 9.75024 94.1063 10.2254V14.831C94.1063 15.6904 94.1462 16.2651 94.225 16.5574C94.3038 16.8508 94.4655 16.9964 94.7113 16.9964C94.7985 16.9964 94.8867 16.9789 94.9739 16.9417C95.0621 16.9055 95.1756 16.8234 95.3163 16.6953C95.351 16.6581 95.3856 16.6264 95.4213 16.599C95.456 16.5716 95.4917 16.5399 95.5274 16.5027L95.8425 17.0511L93.0811 19.3819L92.8175 19.1071C92.5192 18.8148 92.2829 18.5641 92.1075 18.3539C91.9321 18.1437 91.8008 17.9149 91.7125 17.6675C91.6253 17.4212 91.5718 17.1157 91.555 16.7501C91.5371 16.3844 91.5287 15.9093 91.5287 15.3247V8.47048L90.4763 7.37463L88.6623 8.93684V16.4479L89.5824 17.4628L87.2947 19.3819L85.0585 17.3806L86.0847 16.3932V9.40321C86.0847 8.89196 86.0794 8.55259 86.071 8.38837C86.0626 8.22416 86.0322 8.08732 85.9786 7.97675C85.8736 7.77641 85.7244 7.67569 85.5322 7.67569C85.444 7.67569 85.3558 7.6943 85.2686 7.73043C85.1814 7.76765 85.049 7.8399 84.8736 7.95047L84.5585 7.53885L87.1624 5.51028ZM99.2255 19.3815C98.8716 18.9973 98.4514 18.5824 97.9651 18.1335C97.4788 17.6868 97.0608 17.353 96.711 17.1329V16.8866C96.8853 16.8143 97.0303 16.7366 97.1437 16.6534C97.2582 16.5713 97.3454 16.4531 97.4074 16.2976C97.4683 16.1422 97.5124 15.9506 97.5387 15.7218C97.5649 15.493 97.5786 15.1963 97.5786 14.8306V8.11436L96.6311 7.2922L98.8275 5.50995L101.024 7.37431L100.156 8.22383V16.6676L100.892 17.353L101.681 16.6676L101.971 17.1329L99.2255 19.3815ZM99.13 0.02744L101.313 0.0821775L99.13 3.20769L98.4987 3.15295L99.13 0.02744ZM105.837 18.6414L103.075 16.5307V7.18262C103.899 7.07314 104.635 6.8947 105.284 6.64838C105.933 6.40096 106.635 6.02218 107.388 5.50984L111.045 7.3742L113.096 6.22252V9.10171C112.871 9.04697 112.681 8.99662 112.524 8.95064C112.369 8.90466 112.222 8.85977 112.083 8.81379C111.945 8.76781 111.798 8.72183 111.642 8.67695C111.487 8.63097 111.305 8.57185 111.097 8.4985V14.8305C111.097 15.1962 111.106 15.4885 111.123 15.7085C111.14 15.9275 111.179 16.1289 111.24 16.3117C111.3 16.4935 111.391 16.6905 111.513 16.9007C111.633 17.1109 111.798 17.3802 112.006 17.7086C112.213 18.0206 112.381 18.2845 112.511 18.5045C112.641 18.7235 112.744 18.9107 112.823 19.0661C112.9 19.2216 112.952 19.3628 112.978 19.4909C113.004 19.619 113.017 19.7471 113.017 19.8751C113.017 20.1127 112.973 20.3273 112.886 20.5189C112.798 20.7115 112.648 20.9031 112.438 21.0947C112.228 21.2863 111.943 21.4921 111.583 21.7121C111.224 21.9311 110.764 22.1774 110.203 22.4522L109.572 22.7532C109.028 22.4971 108.536 22.3241 108.098 22.2321C107.66 22.1413 107.16 22.0953 106.599 22.0953C106.038 22.0953 105.468 22.1413 104.89 22.2321C104.312 22.3241 103.707 22.4609 103.075 22.6438L102.812 22.3701L105.837 18.6414ZM105.101 20.3415C105.556 20.2495 105.946 20.1861 106.271 20.1488C106.595 20.1127 106.932 20.0941 107.283 20.0941C107.634 20.0941 107.959 20.1127 108.257 20.1488C108.554 20.1861 108.848 20.2408 109.138 20.313C109.427 20.3864 109.725 20.4871 110.032 20.6152C110.339 20.7433 110.676 20.8987 111.045 21.0816L111.492 20.8068C110.843 20.3503 110.185 19.6463 109.519 18.6961C109.169 18.221 108.923 17.8006 108.783 17.4349C108.642 17.0693 108.554 16.6226 108.519 16.0917L105.101 20.3415ZM107.204 16.9138L108.519 15.2969V8.4985L105.599 7.3742V15.6538L107.204 16.9138ZM113.28 17.4899L114.333 16.5572V3.75517C114.333 3.40923 114.315 3.10708 114.28 2.85091C114.245 2.59583 114.183 2.36703 114.095 2.1656C114.008 1.96526 113.894 1.77258 113.754 1.58976C113.613 1.40803 113.43 1.21535 113.202 1.01392L113.412 0.658125C113.745 0.804822 114.047 0.973413 114.319 1.16499C114.591 1.35658 114.928 1.6445 115.332 2.02875C115.683 1.57224 116.099 1.21535 116.582 0.959182C117.064 0.704105 117.664 0.511429 118.383 0.383343L118.541 0.712863C118.225 0.914297 117.966 1.10588 117.765 1.2887C117.564 1.47152 117.405 1.67186 117.292 1.89191C117.177 2.11086 117.098 2.36703 117.054 2.65933C117.01 2.95163 116.989 3.29976 116.989 3.70044V8.6082L120.646 5.51006C121.031 5.82097 121.346 6.09903 121.592 6.34645C121.837 6.59276 122.026 6.86317 122.157 7.15547C122.289 7.44776 122.377 7.78495 122.421 8.1692C122.464 8.55346 122.486 9.02858 122.486 9.59457V15.0497C122.486 15.7449 122.447 16.3612 122.368 16.8998C122.289 17.4395 122.157 17.9289 121.973 18.3668C121.789 18.8058 121.556 19.2032 121.276 19.5601C120.995 19.9159 120.646 20.2498 120.224 20.5607C119.61 20.9986 118.93 21.4102 118.186 21.7945C117.44 22.1776 116.525 22.5794 115.438 22.9998L115.279 22.506L115.595 22.3418C116.506 21.9039 117.239 21.5098 117.791 21.1628C118.343 20.8158 118.769 20.4271 119.067 19.998C119.365 19.5688 119.563 19.062 119.659 18.4763C119.755 17.8928 119.803 17.1615 119.803 16.2835V9.67667C119.803 9.38547 119.794 9.13806 119.777 8.93662C119.76 8.73628 119.72 8.55784 119.659 8.40239C119.597 8.24693 119.509 8.10571 119.396 7.97762C119.281 7.84954 119.136 7.71269 118.962 7.566L116.989 9.23878V16.5572L117.804 17.572L115.489 19.3816L113.28 17.4899ZM127.983 1.94654V6.08579H130.166V7.53852H127.983V16.256C128.123 16.348 128.241 16.4301 128.338 16.5034C128.434 16.5757 128.527 16.6446 128.614 16.7081C128.702 16.7727 128.789 16.8461 128.876 16.9282C128.965 17.0103 129.078 17.1066 129.219 17.2161L130.035 16.5034L130.429 16.9687L127.641 19.3815C126.8 18.4499 125.774 17.8007 124.564 17.4351V17.0793C124.738 16.9512 124.883 16.8231 124.997 16.695C125.111 16.5669 125.199 16.4115 125.261 16.2286C125.322 16.0469 125.361 15.8181 125.379 15.5433C125.396 15.2696 125.405 14.9128 125.405 14.4749V7.53852H124.248V7.07325L127.983 1.94654ZM134.245 19.3815C133.777 18.8517 133.299 18.4357 132.814 18.1335C132.327 17.8325 131.752 17.5905 131.086 17.4077V17.0234C131.261 16.914 131.406 16.8089 131.521 16.7081C131.634 16.6085 131.722 16.4848 131.783 16.3381C131.845 16.1925 131.888 16.0141 131.915 15.8039C131.941 15.5937 131.955 15.3342 131.955 15.0222V4.27616C131.955 3.81965 131.937 3.43102 131.902 3.11135C131.866 2.79168 131.805 2.518 131.717 2.28919C131.63 2.06039 131.503 1.86881 131.336 1.71335C131.169 1.5579 130.955 1.39807 130.692 1.23385L130.823 0.849597C131.069 0.941556 131.279 1.02804 131.455 1.11015C131.63 1.19225 131.786 1.27983 131.926 1.3707C132.067 1.46266 132.21 1.56775 132.358 1.68599C132.505 1.80531 132.674 1.95639 132.865 2.13812C133.212 1.71773 133.638 1.36194 134.143 1.06964C134.648 0.777344 135.19 0.548541 135.768 0.383234L135.9 0.849597C135.619 1.05103 135.39 1.24699 135.216 1.43967C135.04 1.63125 134.9 1.8502 134.795 2.09761C134.69 2.34393 134.619 2.63185 134.585 2.96027C134.549 3.28979 134.532 3.70142 134.532 4.19406V16.3107L135.821 17.2435L136.373 16.8045L136.741 17.2435L134.245 19.3815ZM140.305 6.71669C140.068 6.31492 139.625 5.91205 138.977 5.51028L136.32 7.81253L136.635 8.19679L136.794 8.08732C137.057 7.86727 137.268 7.7578 137.424 7.7578C137.6 7.7578 137.749 7.8399 137.872 8.00521C137.96 8.09608 138.012 8.2373 138.03 8.42997C138.047 8.62155 138.057 8.98282 138.057 9.51268V15.571C138.057 16.01 138.047 16.3757 138.03 16.668C138.012 16.9603 137.968 17.2153 137.898 17.4354C137.828 17.6543 137.728 17.8733 137.597 18.0933C137.464 18.3123 137.293 18.5685 137.083 18.8608C136.785 19.2625 136.587 19.5964 136.492 19.8614C136.395 20.1263 136.347 20.4416 136.347 20.8072C136.347 21.5013 136.587 22.041 137.07 22.4242C137.552 22.8084 138.214 23 139.055 23C139.477 23 139.88 22.9628 140.265 22.8905C140.651 22.8172 140.984 22.7165 141.265 22.5884C141.545 22.4603 141.77 22.3147 141.936 22.1505C142.103 21.9863 142.186 21.8122 142.186 21.6294C142.186 21.4827 142.133 21.3557 142.028 21.2451C141.923 21.1356 141.8 21.0809 141.659 21.0809C141.502 21.0809 141.361 21.117 141.239 21.1904C141.116 21.2637 140.931 21.4279 140.687 21.6841C140.213 22.1778 139.608 22.4242 138.872 22.4242C138.329 22.4242 137.881 22.2775 137.53 21.9863C137.18 21.6929 137.004 21.3185 137.004 20.862C137.004 20.3857 137.214 19.9019 137.635 19.4092C137.811 19.2264 138.03 19.0392 138.293 18.8465C138.555 18.6549 139.011 18.367 139.66 17.9828C140.379 17.5635 141.037 17.1376 141.636 16.7085C142.236 16.2793 142.778 15.8633 143.264 15.4616C144.15 14.7303 144.826 13.9037 145.296 12.9808C145.765 12.058 145.999 11.0847 145.999 10.0612C145.999 9.20177 145.85 8.38399 145.552 7.60782C145.254 6.83054 144.833 6.15946 144.289 5.59238L140.66 8.58105V8.361C140.66 7.66693 140.542 7.11846 140.305 6.71669ZM141.767 15.5437C141.428 15.964 141.051 16.3297 140.634 16.6395V9.29373L142.406 7.81253C143.083 8.8 143.422 9.89584 143.422 11.1023C143.422 11.6146 143.357 12.1357 143.226 12.6656C143.096 13.1954 142.905 13.7023 142.653 14.1862C142.401 14.6711 142.106 15.1233 141.767 15.5437Z" fill="black" fill-opacity="0.87"/>
</svg>
